<?xml version="1.0" standalone="no"?>
<!DOCTYPE svg PUBLIC "-//W3C//DTD SVG 20010904//EN"
 "http://www.w3.org/TR/2001/REC-SVG-20010904/DTD/svg10.dtd">
<svg version="1.0" xmlns="http://www.w3.org/2000/svg"
 width="1015.000000pt" height="1015.000000pt" viewBox="0 0 1015.000000 1015.000000"
 preserveAspectRatio="xMidYMid meet">

<g transform="translate(0.000000,1015.000000) scale(0.100000,-0.100000)"
fill="#000000" fill-opacity="20%" stroke="none">
<path d="M0 5075 l0 -5075 5075 0 5075 0 0 5075 0 5075 -5075 0 -5075 0 0
-5075z m5395 4735 c1025 -75 1939 -441 2730 -1094 154 -127 474 -447 601 -601
721 -873 1104 -1930 1104 -3045 0 -1116 -383 -2172 -1104 -3045 -127 -154
-447 -474 -601 -601 -873 -721 -1930 -1104 -3045 -1104 -1115 0 -2172 383
-3045 1104 -154 127 -474 447 -601 601 -721 873 -1104 1930 -1104 3045 0 1115
383 2172 1104 3045 127 154 447 474 601 601 785 648 1700 1017 2710 1093 161
12 489 12 650 1z"/>
<path d="M4780 9639 c-468 -29 -972 -144 -1409 -321 -1054 -425 -1920 -1234
-2412 -2253 -273 -566 -416 -1128 -451 -1772 -34 -636 74 -1296 309 -1893 237
-601 570 -1108 1028 -1565 305 -305 600 -532 957 -737 758 -435 1640 -646
2500 -600 642 35 1198 176 1763 446 469 225 868 509 1251 891 457 456 790 963
1027 1565 235 597 343 1257 309 1893 -18 334 -53 570 -127 872 -56 229 -101
369 -182 575 -734 1861 -2567 3026 -4563 2899z m760 -334 c389 -45 752 -136
1115 -278 176 -69 499 -233 673 -342 547 -343 1023 -821 1364 -1368 342 -551
546 -1155 620 -1832 17 -158 17 -662 0 -820 -62 -569 -206 -1056 -456 -1540
-197 -382 -433 -708 -736 -1019 -707 -724 -1606 -1157 -2635 -1268 -157 -17
-663 -17 -820 0 -541 58 -1019 196 -1485 428 -401 200 -744 443 -1068 758
-353 344 -615 701 -837 1141 -234 463 -368 915 -432 1453 -24 206 -24 708 0
914 63 530 196 983 423 1438 215 430 456 762 804 1110 348 348 680 589 1110
804 465 232 984 381 1480 425 69 6 143 13 165 15 94 9 588 -4 715 -19z"/>
<path d="M4895 8340 c-823 -43 -1606 -402 -2179 -1001 -630 -658 -954 -1530
-905 -2439 59 -1106 662 -2092 1623 -2655 303 -177 732 -338 945 -355 99 -7
138 -3 183 21 l26 14 -34 100 c-19 55 -41 132 -48 170 -8 39 -24 106 -35 149
-12 44 -21 89 -21 101 0 12 -9 42 -20 67 -10 24 -22 64 -26 88 -4 25 -20 78
-36 119 -19 48 -33 104 -38 160 -5 47 -14 100 -20 116 -7 17 -13 65 -13 108
-2 61 -5 77 -17 78 -32 2 -66 -4 -90 -16 -14 -7 -62 -22 -107 -34 -45 -11
-103 -32 -129 -46 -26 -14 -53 -25 -61 -25 -15 0 -48 -20 -111 -67 -24 -18
-50 -33 -58 -33 -7 0 -28 -9 -46 -20 -18 -11 -48 -20 -65 -20 -18 0 -50 -6
-70 -14 -21 -8 -60 -17 -88 -21 -27 -3 -69 -13 -92 -22 -35 -13 -48 -13 -72
-3 -37 15 -200 175 -221 215 -8 17 -27 43 -42 59 -16 17 -28 35 -28 41 0 6 -9
18 -20 28 -11 9 -20 26 -20 36 0 11 -4 22 -9 26 -5 3 -12 19 -16 35 -4 17 -11
30 -15 30 -5 0 -14 18 -20 40 -6 21 -15 42 -20 45 -12 7 -50 93 -50 112 0 7
-7 16 -15 19 -8 4 -15 11 -15 16 0 6 -6 24 -14 41 -17 39 -36 117 -36 150 0
14 16 48 35 77 25 37 32 56 26 68 -13 25 -40 162 -39 202 0 19 -2 68 -4 108
-2 40 -1 75 3 77 9 6 4 53 -8 84 -11 29 2 97 24 122 33 38 34 79 5 204 -16 66
-26 130 -23 142 14 53 86 112 167 137 13 4 24 18 27 35 6 28 51 61 83 61 8 0
22 18 33 40 19 40 19 40 0 51 -11 5 -24 7 -29 4 -5 -3 -11 -1 -14 3 -3 5 -23
9 -44 9 -23 0 -57 10 -80 23 -35 19 -42 30 -52 71 -14 59 -7 172 14 221 4 9 9
22 10 30 6 28 45 118 56 128 14 13 105 166 102 173 -1 4 4 7 10 7 17 1 68 46
68 60 0 5 4 10 9 10 4 0 25 16 45 35 21 19 41 35 45 35 10 0 28 37 35 71 3 14
2 49 -3 77 -5 32 -4 55 1 58 6 4 8 17 5 30 -2 14 0 27 4 30 5 3 9 20 9 39 0
40 21 135 30 135 3 0 5 15 4 32 -1 18 2 38 8 45 5 7 7 16 4 21 -3 6 1 15 8 21
8 7 17 29 21 51 4 21 13 46 20 57 8 10 15 27 15 38 0 11 6 29 13 40 26 40 57
132 67 200 10 65 29 132 51 180 6 11 11 36 12 55 1 19 6 41 10 48 5 6 5 12 1
12 -3 0 -1 7 6 15 7 9 10 18 7 21 -3 4 3 23 14 42 10 20 19 43 19 50 0 7 9 22
20 34 11 12 20 28 20 35 0 14 50 43 77 43 15 0 16 2 3 10 -13 9 -13 10 0 10
14 1 61 57 85 102 5 10 15 18 21 18 14 0 85 76 77 83 -3 3 4 16 16 28 12 13
21 26 21 30 0 11 66 39 94 39 14 0 44 10 66 21 23 12 51 19 65 16 14 -2 28 0
31 4 3 5 13 9 23 9 10 0 24 6 30 14 7 8 27 18 44 21 18 4 46 13 62 20 45 20
204 57 244 57 41 0 116 -17 241 -55 47 -14 117 -28 155 -32 137 -12 164 -24
197 -89 27 -55 116 -185 144 -213 13 -13 30 -23 38 -23 8 0 16 -3 18 -8 2 -4
32 -27 68 -52 36 -24 71 -50 79 -57 7 -8 29 -23 50 -33 40 -22 45 -26 146 -92
40 -26 83 -50 97 -53 14 -4 35 -15 47 -26 11 -10 27 -19 36 -19 8 0 15 -4 15
-9 0 -5 16 -15 35 -21 19 -6 41 -17 48 -23 12 -11 70 -41 157 -80 19 -9 49
-25 65 -37 17 -11 35 -20 41 -20 6 0 60 -23 120 -52 60 -28 114 -52 119 -53 6
0 29 -10 52 -23 23 -12 50 -22 60 -22 10 0 27 -7 37 -15 11 -8 34 -15 52 -15
18 0 35 -4 39 -10 3 -5 12 -7 20 -3 8 3 15 1 15 -4 0 -13 57 -9 93 5 16 7 35
12 43 12 8 0 17 7 20 14 3 8 31 21 62 27 32 7 62 19 67 27 14 18 338 93 346
80 4 -6 19 -6 42 0 20 6 78 8 128 5 87 -5 92 -4 85 13 -5 11 -10 45 -13 77 -6
56 -9 62 -98 165 -505 587 -1222 980 -1994 1092 -117 17 -467 43 -506 38 -5 0
-73 -4 -150 -8z"/>
<path d="M3498 6371 c-27 -17 -48 -37 -48 -45 0 -8 -5 -16 -11 -18 -10 -3 -51
-137 -44 -148 2 -3 6 -40 9 -83 3 -43 8 -82 11 -87 4 -6 -2 -13 -12 -17 -31
-11 -135 -98 -209 -175 -124 -128 -186 -238 -207 -365 -16 -96 -5 -161 28
-169 29 -7 117 19 154 46 16 11 34 20 41 20 6 0 28 11 48 25 20 14 42 25 49
25 7 0 13 4 13 8 0 4 30 24 68 44 100 54 188 71 372 72 143 0 161 -2 233 -27
l78 -27 30 22 c21 16 29 29 26 43 -10 40 -32 91 -53 120 -11 17 -24 40 -28 53
-4 12 -11 22 -16 22 -5 0 -12 9 -15 20 -12 38 -158 178 -208 199 -27 12 -55
21 -63 21 -8 0 -14 5 -14 10 0 6 -6 10 -12 9 -34 -4 -49 3 -59 28 -7 20 -6 28
3 35 17 10 121 -1 172 -18 40 -15 56 -12 56 11 0 16 -46 116 -57 124 -5 3 -19
20 -31 36 -13 17 -62 70 -109 118 -103 106 -124 114 -195 68z"/>
<path d="M3899 5357 c-46 -10 -46 -10 -48 -54 -2 -56 -23 -97 -61 -120 -16 -9
-30 -21 -30 -25 0 -4 -10 -8 -22 -8 -13 0 -36 -7 -53 -16 -39 -21 -130 -43
-179 -44 -21 0 -56 -5 -76 -11 -32 -10 -39 -18 -50 -53 -32 -105 -72 -184
-112 -217 -24 -19 -27 -102 -5 -127 8 -9 18 -29 23 -44 11 -32 140 -178 158
-178 9 0 16 19 20 51 4 28 11 58 16 67 5 10 20 42 33 72 15 36 38 67 64 88 50
39 72 47 153 56 109 12 176 53 206 126 17 40 13 122 -11 210 -15 57 -13 64 21
74 16 5 40 -6 89 -39 63 -43 68 -45 81 -28 7 10 13 25 11 33 -4 23 -72 63
-136 80 -48 13 -56 19 -59 41 -4 32 17 39 95 34 37 -3 55 0 63 11 7 8 10 17 6
21 -11 11 -148 11 -197 0z"/>
<path d="M3512 5309 c-44 -8 -112 -44 -112 -59 0 -10 36 -20 74 -20 37 0 112
36 120 57 7 16 -10 34 -29 32 -5 -1 -29 -5 -53 -10z"/>
<path d="M3055 4969 c4 -13 11 -28 16 -33 5 -6 9 -16 9 -23 0 -17 48 -63 66
-63 8 0 28 14 45 31 25 25 28 33 18 46 -14 17 -67 46 -89 50 -8 1 -28 5 -44 9
-26 6 -28 5 -21 -17z"/>
<path d="M2889 4830 l-43 -39 48 -21 c26 -11 51 -20 54 -20 18 -1 49 -39 64
-76 16 -39 16 -45 0 -90 -19 -52 -50 -70 -103 -60 -24 5 -28 1 -33 -28 -9 -48
1 -66 38 -66 64 0 166 53 209 108 38 49 34 98 -16 177 -23 36 -120 135 -134
135 -7 0 -13 5 -13 10 0 21 -29 9 -71 -30z"/>
<path d="M3216 4419 c-25 -23 -64 -53 -88 -67 -45 -26 -194 -66 -240 -64 -14
1 -30 -4 -35 -11 -13 -17 11 -256 28 -293 14 -28 17 -29 79 -28 84 1 149 9
232 28 65 16 224 25 243 15 6 -3 22 -6 38 -7 24 -2 27 2 27 31 0 68 -52 201
-125 322 -13 22 -29 50 -34 63 -6 12 -17 22 -25 22 -7 0 -16 7 -20 15 -9 25
-33 17 -80 -26z"/>
<path d="M3229 3877 c-37 -20 -184 -48 -267 -50 -67 -2 -72 -4 -89 -32 -32
-53 -34 -76 -11 -113 18 -30 25 -34 53 -29 18 3 66 25 106 50 144 86 181 96
369 96 83 0 136 3 138 10 3 9 -88 58 -128 69 -43 13 -147 12 -171 -1z"/>
</g>
</svg>
