<svg xmlns="http://www.w3.org/2000/svg" viewBox="0 0 950 949.813"><path d="M931.2,466.5c-7.4-67.7-27.8-128.1-62-183.2A434.517,434.517,0,0,0,732.8,146.5c-17.4-10.9-49.7-27.3-67.3-34.2A440.26,440.26,0,0,0,554,84.5c-12.7-1.5-62.1-2.8-71.5-1.9-2.2.2-9.6.9-16.5,1.5-49.6,4.4-101.5,19.3-148,42.5-43,21.5-76.2,45.6-111,80.4s-58.9,68-80.4,111c-22.7,45.5-36,90.8-42.3,143.8-2.4,20.6-2.4,70.8,0,91.4,6.4,53.8,19.8,99,43.2,145.3,22.2,44,48.4,79.7,83.7,114.1A415.851,415.851,0,0,0,318,888.4c46.6,23.2,94.4,37,148.5,42.8,15.7,1.7,66.3,1.7,82,0C651.4,920.1,741.3,876.8,812,804.4a415.469,415.469,0,0,0,73.6-101.9c25-48.4,39.4-97.1,45.6-154C932.9,532.7,932.9,482.3,931.2,466.5ZM757.1,318.7c-5-.3-10.8-.1-12.8.5-2.3.6-3.8.6-4.2,0-.8-1.3-33.2,6.2-34.6,8-.5.8-3.5,2-6.7,2.7-3.1.6-5.9,1.9-6.2,2.7a2.471,2.471,0,0,1-2,1.4,14.183,14.183,0,0,0-4.3,1.2c-3.6,1.4-9.3,1.8-9.3.5,0-.5-.7-.7-1.5-.4a1.575,1.575,0,0,1-2-.3c-.4-.6-2.1-1-3.9-1a10.284,10.284,0,0,1-5.2-1.5,7.284,7.284,0,0,0-3.7-1.5c-1,0-3.7-1-6-2.2a19.99,19.99,0,0,0-5.2-2.3c-.5-.1-5.9-2.5-11.9-5.3-6-2.9-11.4-5.2-12-5.2a13,13,0,0,1-4.1-2,45.647,45.647,0,0,0-6.5-3.7c-8.7-3.9-14.5-6.9-15.7-8a17.89,17.89,0,0,0-4.8-2.3c-1.9-.6-3.5-1.6-3.5-2.1s-.7-.9-1.5-.9a7.037,7.037,0,0,1-3.6-1.9,13.683,13.683,0,0,0-4.7-2.6c-1.4-.3-5.7-2.7-9.7-5.3-10.1-6.6-10.6-7-14.6-9.2a19.41,19.41,0,0,1-5-3.3c-.8-.7-4.3-3.3-7.9-5.7a54.131,54.131,0,0,1-6.8-5.2c-.2-.5-1-.8-1.8-.8s-2.5-1-3.8-2.3c-2.8-2.8-11.7-15.8-14.4-21.3-3.3-6.5-6-7.7-19.7-8.9a104.588,104.588,0,0,1-15.5-3.2c-12.5-3.8-20-5.5-24.1-5.5-4,0-19.9,3.7-24.4,5.7a40.839,40.839,0,0,1-6.2,2,9.052,9.052,0,0,0-4.4,2.1,4.254,4.254,0,0,1-3,1.4,2.9,2.9,0,0,0-2.3.9c-.3.4-1.7.6-3.1.4-1.4-.3-4.2.4-6.5,1.6a19.723,19.723,0,0,1-6.6,2.1c-2.8,0-9.4,2.8-9.4,3.9a8.86,8.86,0,0,1-2.1,3c-1.2,1.2-1.9,2.5-1.6,2.8.8.7-6.3,8.3-7.7,8.3a3.18,3.18,0,0,0-2.1,1.8c-2.4,4.5-7.1,10.1-8.5,10.2-1.3,0-1.3.1,0,1,1.3.8,1.2,1-.3,1-2.7,0-7.7,2.9-7.7,4.3a7.548,7.548,0,0,1-2,3.5,7.343,7.343,0,0,0-2,3.4,19.282,19.282,0,0,1-1.9,5c-1.1,1.9-1.7,3.8-1.4,4.2.3.3,0,1.2-.7,2.1-.7.8-.9,1.5-.6,1.5.4,0,.4.6-.1,1.2a14.558,14.558,0,0,0-1,4.8,16.024,16.024,0,0,1-1.2,5.5,72.215,72.215,0,0,0-5.1,18c-1,6.8-4.1,16-6.7,20a8.97,8.97,0,0,0-1.3,4,7.262,7.262,0,0,1-1.5,3.8,19.7,19.7,0,0,0-2,5.7c-.4,2.2-1.3,4.4-2.1,5.1a1.956,1.956,0,0,0-.8,2.1,2.15,2.15,0,0,1-.4,2.1c-.6.7-.9,2.7-.8,4.5.1,1.7-.1,3.2-.4,3.2-.9,0-3,9.5-3,13.5,0,1.9-.4,3.6-.9,3.9-.4.3-.6,1.6-.4,3,.3,1.3.1,2.6-.5,3-.5.3-.6,2.6-.1,5.8a26.2,26.2,0,0,1,.3,7.7c-.7,3.4-2.5,7.1-3.5,7.1-.4,0-2.4,1.6-4.5,3.5-2,1.9-4.1,3.5-4.5,3.5a.987.987,0,0,0-.9,1c0,1.4-5.1,5.9-6.8,6-.6,0-1.1.3-1,.7.3.7-8.8,16-10.2,17.3-1.1,1-5,10-5.6,12.8a13.2,13.2,0,0,1-1,3c-2.1,4.9-2.8,16.2-1.4,22.1,1,4.1,1.7,5.2,5.2,7.1a18.7,18.7,0,0,0,8,2.3c2.1,0,4.1.4,4.4.9a1.076,1.076,0,0,0,1.4.3,4.032,4.032,0,0,1,2.9.4c1.9,1.1,1.9,1.1,0,5.1-1.1,2.2-2.5,4-3.3,4-3.2,0-7.7,3.3-8.3,6.1a4.387,4.387,0,0,1-2.7,3.5c-8.1,2.5-15.3,8.4-16.7,13.7-.3,1.2.7,7.6,2.3,14.2,2.9,12.5,2.8,16.6-.5,20.4-2.2,2.5-3.5,9.3-2.4,12.2,1.2,3.1,1.7,7.8.8,8.4-.4.2-.5,3.7-.3,7.7s.4,8.9.4,10.8c-.1,4,2.6,17.7,3.9,20.2.6,1.2-.1,3.1-2.6,6.8-1.9,2.9-3.5,6.3-3.5,7.7,0,3.3,1.9,11.1,3.6,15a14.873,14.873,0,0,1,1.4,4.1c0,.5.7,1.2,1.5,1.6a2.389,2.389,0,0,1,1.5,1.9c0,1.9,3.8,10.5,5,11.2.5.3,1.4,2.4,2,4.5.6,2.2,1.5,4,2,4,.4,0,1.1,1.3,1.5,3,.4,1.6,1.1,3.2,1.6,3.5a3.667,3.667,0,0,1,.9,2.6,5.751,5.751,0,0,0,2,3.6c1.1,1,2,2.2,2,2.8s1.2,2.4,2.8,4.1a27.915,27.915,0,0,1,4.2,5.9c2.1,4,18.4,20,22.1,21.5,2.4,1,3.7,1,7.2-.3a44.194,44.194,0,0,1,9.2-2.2,49.452,49.452,0,0,0,8.8-2.1,22.9,22.9,0,0,1,7-1.4,15.246,15.246,0,0,0,6.5-2,14.137,14.137,0,0,1,4.6-2c.8,0,3.4-1.5,5.8-3.3,6.3-4.7,9.6-6.7,11.1-6.7.8,0,3.5-1.1,6.1-2.5a67.5,67.5,0,0,1,12.9-4.6,87.074,87.074,0,0,0,10.7-3.4,18.593,18.593,0,0,1,9-1.6c1.2.1,1.5,1.7,1.7,7.8,0,4.3.6,9.1,1.3,10.8a71.227,71.227,0,0,1,2,11.6,58.538,58.538,0,0,0,3.8,16,74.35,74.35,0,0,1,3.6,11.9,48.875,48.875,0,0,0,2.6,8.8,23.355,23.355,0,0,1,2,6.7,63.792,63.792,0,0,0,2.1,10.1c1.1,4.3,2.7,11,3.5,14.9a149.2,149.2,0,0,0,4.8,17l3.4,10-2.6,1.4c-4.5,2.4-8.4,2.8-18.3,2.1-21.3-1.7-64.2-17.8-94.5-35.5C247.3,734.2,187,635.6,181.1,525c-4.9-90.9,27.5-178.1,90.5-243.9A325.846,325.846,0,0,1,489.5,181c7.7-.4,14.5-.8,15-.8,3.9-.5,38.9,2.1,50.6,3.8,77.2,11.2,148.9,50.5,199.4,109.2,8.9,10.3,9.2,10.9,9.8,16.5.3,3.2.8,6.6,1.3,7.7C766.3,319.1,765.8,319.2,757.1,318.7ZM392.5,502c2.4,8.8,2.8,17,1.1,21-3,7.3-9.7,11.4-20.6,12.6-8.1.9-10.3,1.7-15.3,5.6a22.573,22.573,0,0,0-6.4,8.8c-1.3,3-2.8,6.2-3.3,7.2a28.317,28.317,0,0,0-1.6,6.7c-.4,3.2-1.1,5.1-2,5.1-1.8,0-14.7-14.6-15.8-17.8a15.159,15.159,0,0,0-2.3-4.4c-2.2-2.5-1.9-10.8.5-12.7,4-3.3,8-11.2,11.2-21.7,1.1-3.5,1.8-4.3,5-5.3a32.437,32.437,0,0,1,7.6-1.1c4.9-.1,14-2.3,17.9-4.4a13.733,13.733,0,0,1,5.3-1.6c1.2,0,2.2-.4,2.2-.8s1.4-1.6,3-2.5c3.8-2.3,5.9-6.4,6.1-12,.2-4.4.2-4.4,4.8-5.4,4.9-1.1,18.6-1.1,19.7,0,.4.4.1,1.3-.6,2.1-.8,1.1-2.6,1.4-6.3,1.1-7.8-.5-9.9.2-9.5,3.4.3,2.2,1.1,2.8,5.9,4.1,6.4,1.7,13.2,5.7,13.6,8a5.2,5.2,0,0,1-1.1,3.3c-1.3,1.7-1.8,1.5-8.1-2.8-4.9-3.3-7.3-4.4-8.9-3.9C391.2,495.6,391,496.3,392.5,502Zm-70.9,71.1c4.7-4.3,7.1-5.1,8-2.6a2.683,2.683,0,0,0,2,1.5c.8,0,1.9,1,2.5,2.2a60.889,60.889,0,0,0,3.4,6.3c7.3,12.1,12.5,25.4,12.5,32.2,0,2.9-.3,3.3-2.7,3.1a12.8,12.8,0,0,1-3.8-.7c-1.9-1-17.8-.1-24.3,1.5a101.517,101.517,0,0,1-23.2,2.8c-6.2.1-6.5,0-7.9-2.8-1.7-3.7-4.1-27.6-2.8-29.3.5-.7,2.1-1.2,3.5-1.1,4.6.2,19.5-3.8,24-6.4A62.219,62.219,0,0,0,321.6,573.1Zm-10.9-29.6c5,7.9,5.4,12.8,1.6,17.7-4.3,5.5-14.5,10.8-20.9,10.8-3.7,0-4.7-1.8-3.8-6.6.5-2.9.9-3.3,3.3-2.8,5.3,1,8.4-.8,10.3-6,1.6-4.5,1.6-5.1,0-9-1.5-3.7-4.6-7.5-6.4-7.6a42.361,42.361,0,0,1-5.4-2l-4.8-2.1,4.3-3.9c4.2-3.9,7.1-5.1,7.1-3a1.233,1.233,0,0,0,1.3,1C298.7,530,308.4,539.9,310.7,543.5Zm-23.4,92c1.7-2.8,2.2-3,8.9-3.2,8.3-.2,23-3,26.7-5,2.4-1.3,12.8-1.4,17.1-.1,4,1.1,13.1,6,12.8,6.9-.2.7-5.5,1-13.8,1-18.8,0-22.5,1-36.9,9.6-4,2.5-8.8,4.7-10.6,5-2.8.5-3.5.1-5.3-2.9C283.9,643.1,284.1,640.8,287.3,635.5ZM410.1,467.8l-3,2.2-7.8-2.7c-7.2-2.5-9-2.7-23.3-2.7-18.4.1-27.2,1.8-37.2,7.2-3.8,2-6.8,4-6.8,4.4s-.6.8-1.3.8-2.9,1.1-4.9,2.5-4.2,2.5-4.8,2.5a11.272,11.272,0,0,0-4.1,2c-3.7,2.7-12.5,5.3-15.4,4.6-3.3-.8-4.4-7.3-2.8-16.9,2.1-12.7,8.3-23.7,20.7-36.5,7.4-7.7,17.8-16.4,20.9-17.5,1-.4,1.6-1.1,1.2-1.7-.3-.5-.8-4.4-1.1-8.7a61.119,61.119,0,0,0-.9-8.3c-.7-1.1,3.4-14.5,4.4-14.8a1.945,1.945,0,0,0,1.1-1.8c0-.8,2.1-2.8,4.8-4.5,7.1-4.6,9.2-3.8,19.5,6.8,4.7,4.8,9.6,10.1,10.9,11.8a22.51,22.51,0,0,0,3.1,3.6c1.1.8,5.7,10.8,5.7,12.4,0,2.3-1.6,2.6-5.6,1.1-5.1-1.7-15.5-2.8-17.2-1.8-.9.7-1,1.5-.3,3.5,1,2.5,2.5,3.2,5.9,2.8a.987.987,0,0,1,1.2.9c0,.5.6,1,1.4,1a25.8,25.8,0,0,1,6.3,2.1c5,2.1,19.6,16.1,20.8,19.9.3,1.1,1,2,1.5,2s1.2,1,1.6,2.2a27.6,27.6,0,0,0,2.8,5.3,39.775,39.775,0,0,1,5.3,12C413,464.9,412.2,466.2,410.1,467.8Z" transform="translate(-33 -33.187)" style="fill:#000"/><path d="M872.6,203.5c-12.7-15.4-44.7-47.4-60.1-60.1C733.4,78.1,642,41.5,539.5,34c-16.1-1.1-48.9-1.1-65,.1-101,7.6-192.5,44.5-271,109.3-15.4,12.7-47.4,44.7-60.1,60.1C71.3,290.8,33,396.5,33,508S71.3,725.2,143.4,812.5c12.7,15.4,44.7,47.4,60.1,60.1C290.8,944.7,396.5,983,508,983s217.2-38.3,304.5-110.4c15.4-12.7,47.4-44.7,60.1-60.1C944.7,725.2,983,619.6,983,508,983,396.5,944.7,290.8,872.6,203.5Zm-41,628c-38.3,38.2-78.2,66.6-125.1,89.1-56.5,27-112.1,41.1-176.3,44.6-86,4.6-174.2-16.5-250-60-35.7-20.5-65.2-43.2-95.7-73.7C138.7,785.8,105.4,735.1,81.7,675A456.326,456.326,0,0,1,50.8,485.7c3.5-64.4,17.8-120.6,45.1-177.2C145.1,206.6,231.7,125.7,337.1,83.2A463.257,463.257,0,0,1,478,51.1C677.6,38.4,860.9,154.9,934.3,341a394.437,394.437,0,0,1,18.2,57.5c7.4,30.2,10.9,53.8,12.7,87.2A456.326,456.326,0,0,1,934.3,675C910.6,735.2,877.3,785.9,831.6,831.5Z" transform="translate(-33 -33.187)" style="fill:#000"/></svg>